<svg xmlns="http://www.w3.org/2000/svg" viewBox="0 0 200 200"><defs><linearGradient id="g2" x1="0%" y1="0%" x2="100%" y2="100%"><stop offset="0%" style="stop-color:#059669"/><stop offset="100%" style="stop-color:#065f46"/></linearGradient></defs><rect width="200" height="200" rx="16" fill="url(#g2)"/><g transform="translate(100,95)" fill="none" stroke="#fff" stroke-width="5" stroke-linecap="round" stroke-linejoin="round"><path d="M-35,35c0-18,9-36,27-36s27,18,27,36"/><path d="M-18,5c0-11,4-14,10-14s10,3,10,14"/><path d="M-8-8,0-25l8,8"/><path d="M-30,20h-5a8,8,0,0,1,0-16h5M30,20h5a8,8,0,0,0,0-16h-5"/></g></svg>